<!DOCTYPE svg PUBLIC "-//W3C//DTD SVG 1.1//EN" "http://www.w3.org/Graphics/SVG/1.1/DTD/svg11.dtd">
<!-- Uploaded to: SVG Repo, www.svgrepo.com, Transformed by: SVG Repo Mixer Tools -->
<svg fill="#EFEFEF" width="64px" height="64px" viewBox="0 0 32 32" id="icon" xmlns="http://www.w3.org/2000/svg" stroke="#EFEFEF">
<g id="SVGRepo_bgCarrier" stroke-width="0"/>
<g id="SVGRepo_tracerCarrier" stroke-linecap="round" stroke-linejoin="round"/>
<g id="SVGRepo_iconCarrier">
<defs>
<style>.cls-1{fill:none;}</style>
</defs>
<title>view--filled</title>
<circle cx="16" cy="16" r="4"/>
<path d="M30.94,15.66A16.69,16.69,0,0,0,16,5,16.69,16.69,0,0,0,1.06,15.66a1,1,0,0,0,0,.68A16.69,16.69,0,0,0,16,27,16.69,16.69,0,0,0,30.94,16.34,1,1,0,0,0,30.94,15.66ZM16,22.5A6.5,6.5,0,1,1,22.5,16,6.51,6.51,0,0,1,16,22.5Z"/>
<rect id="_Transparent_Rectangle_" data-name="&lt;Transparent Rectangle&gt;" class="cls-1" width="32" height="32"/>
</g>
</svg>